<!DOCTYPE svg PUBLIC "-//W3C//DTD SVG 1.1//EN" "http://www.w3.org/Graphics/SVG/1.1/DTD/svg11.dtd">
<!-- Uploaded to: SVG Repo, www.svgrepo.com, Transformed by: SVG Repo Mixer Tools -->
<svg width="240px" height="240px" viewBox="0 0 14 14" role="img" focusable="false" aria-hidden="true" xmlns="http://www.w3.org/2000/svg" fill="#ffffff">
<g id="SVGRepo_bgCarrier" stroke-width="0"/>
<g id="SVGRepo_tracerCarrier" stroke-linecap="round" stroke-linejoin="round"/>
<g id="SVGRepo_iconCarrier">
<path fill="#d60000" d="M7 8.89473682c-1.04210525 0-1.89473682-.85263157-1.89473682-1.89473682S5.95789475 5.10526318 7 5.10526318V1.00000007c-3.31578944 0-5.99999993 2.6842105-5.99999993 5.99999993 0 3.31578944 2.6842105 5.99999993 5.99999993 5.99999993 1.38947367 0 2.6842105-.4736842 3.72631575-1.29473683L8.19999999 8.4842105C7.85263157 8.7368421 7.44210526 8.89473683 7 8.89473683z"/>
<path fill="#eeff00" d="M8.89473682 7h4.10526311c0-3.31578944-2.6842105-5.99999993-5.99999993-5.99999993v4.10526311c1.04210525 0 1.89473682.85263157 1.89473682 1.89473682z"/>
<path fill="#2ac200" d="M12.99999993 7H8.89473682c0 .6-.28421052 1.1368421-.72631578 1.4842105l2.52631576 3.2210526C12.1157894 10.59999996 12.99999993 8.89473682 12.99999993 7z"/>
</g>
</svg>